Coordinates
version=1
nRows=29
nColumns=22
inDegrees=yes

Units are S.I. units (second, meters, Newtons, ...)
If the header above contains a line with 'inDegrees', this indicates whether rotational values are in degrees (yes) or radians (no).

endheader
time	pelvis_tilt	pelvis_list	pelvis_rotation	pelvis_tx	pelvis_ty	pelvis_tz	hip_flexion_r	hip_adduction_r	hip_rotation_r	knee_angle_r	ankle_angle_r	subtalar_angle_r	hip_flexion_l	hip_adduction_l	hip_rotation_l	knee_angle_l	ankle_angle_l	subtalar_angle_l	lumbar_extension	lumbar_bending	lumbar_rotation
      2.07000000	      1.10433509	     -0.68756923	    133.61919053	     -0.36346684	      1.00993084	      0.56640923	     25.08340703	      1.74681725	    -11.13483044	    -30.81200395	      8.35811705	      3.51790831	      1.41766427	      1.30785260	    -11.85814995	    -14.78443717	     14.98849236	     -0.13143900	    -14.80219903	      0.17662828	     -2.99231793
      2.08000000	      1.12495709	     -0.72419083	    133.32675859	     -0.36723093	      1.00929021	      0.56247522	     25.27261087	      1.85644358	    -12.57954044	    -29.07261409	      8.09479322	      3.78256471	      1.01667389	      1.35660129	    -12.15307943	    -14.64583376	     15.22519157	     -0.11434313	    -14.77270837	      0.21740743	     -3.13095070
      2.09000000	      1.04240107	     -0.70150533	    132.99947823	     -0.37109590	      1.00879362	      0.55833295	     25.31198050	      1.94747211	    -14.08146253	    -27.38493765	      7.88077384	      4.15459380	      0.44040614	      1.45407560	    -12.47081069	    -14.43503550	     15.42121894	     -0.05865936	    -14.85850730	      0.21746624	     -3.21323170
      2.10000000	      0.96485151	     -0.70230279	    132.65780681	     -0.37502816	      1.00820936	      0.55401362	     25.35437054	      2.04283008	    -15.62591620	    -25.76127037	      7.64838295	      4.45510094	     -0.12950692	      1.56883175	    -12.79621484	    -14.21593771	     15.62379425	     -0.00593757	    -14.89847914	      0.20708157	     -3.27956890
      2.11000000	      0.82208837	     -0.68026719	    132.28301833	     -0.37903569	      1.00767097	      0.54948280	     25.31494389	      2.12287767	    -17.19364423	    -24.22109336	      7.43605356	      4.74310784	     -0.79317557	      1.72409066	    -13.18121555	    -13.96744361	     15.78446934	      0.06819610	    -14.98800772	      0.15822838	     -3.32953946
      2.12000000	      0.66138163	     -0.64949338	    131.89662693	     -0.38313837	      1.00710486	      0.54476023	     25.23778677	      2.20199706	    -18.79862303	    -22.77185853	      7.25769334	      4.96032822	     -1.49669241	      1.89656352	    -13.55271216	    -13.70344168	     15.94998824	      0.15156972	    -15.07521712	      0.10505772	     -3.35492184
      2.13000000	      0.46091852	     -0.59566807	    131.49682715	     -0.38734244	      1.00654697	      0.53984404	     25.09871499	      2.27097950	    -20.41122161	    -21.42853480	      7.12012945	      5.10925545	     -2.26335404	      2.09201138	    -13.94479398	    -13.43105446	     16.09806024	      0.25373756	    -15.18803246	      0.04125333	     -3.37454199
      2.14000000	      0.23236581	     -0.51691355	    131.09951745	     -0.39162227	      1.00598735	      0.53476279	     24.90568050	      2.33339592	    -22.01460181	    -20.19869260	      7.03058046	      5.17134573	     -3.07282528	      2.29714587	    -14.33279500	    -13.16802521	     16.23789748	      0.37627331	    -15.32795485	     -0.02271290	     -3.39415360
      2.15000000	     -0.01556458	     -0.42015808	    130.70973443	     -0.39599539	      1.00540515	      0.52952662	     24.67113898	      2.38419519	    -23.57893840	    -19.09278364	      6.98594994	      5.13573363	     -3.90415862	      2.50917434	    -14.70424565	    -12.93387396	     16.37335543	      0.51781279	    -15.47416127	     -0.08100783	     -3.41067573
      2.16000000	     -0.26850505	     -0.30492070	    130.35584065	     -0.40044434	      1.00478569	      0.52418352	     24.40326157	      2.42553494	    -25.08224371	    -18.11344703	      6.98249272	      5.00267107	     -4.73176114	      2.70906937	    -15.03630282	    -12.75015459	     16.51547290	      0.67456166	    -15.62805684	     -0.11987280	     -3.45282016
      2.17000000	     -0.51789594	     -0.17642556	    130.05114283	     -0.40497174	      1.00411806	      0.51876908	     24.11315097	      2.45333310	    -26.48750284	    -17.26907807	      7.01591900	      4.78126767	     -5.53445646	      2.88878243	    -15.31132139	    -12.63601694	     16.67079131	      0.84274400	    -15.78032106	     -0.12953781	     -3.53188750
      2.18000000	     -0.75931286	     -0.04086144	    129.80104491	     -0.40957736	      1.00339094	      0.51329922	     23.80946307	      2.46386236	    -27.74935261	    -16.56820495	      7.07136018	      4.48109306	     -6.29537242	      3.04448661	    -15.52765855	    -12.60769719	     16.83703858	      1.02201819	    -15.92348109	     -0.11012568	     -3.64251973
      2.19000000	     -0.98262132	      0.09829549	    129.62418468	     -0.41425634	      1.00259943	      0.50781363	     23.50224834	      2.45453996	    -28.85269884	    -16.01576644	      7.14128591	      4.11963556	     -6.99530068	      3.16325433	    -15.65928309	    -12.67991288	     17.02389029	      1.20583549	    -16.05175120	     -0.05197243	     -3.79697618
      2.20000000	     -1.18559434	      0.23977516	    129.51992971	     -0.41900362	      1.00174923	      0.50232332	     23.19520485	      2.42598592	    -29.76854383	    -15.61769621	      7.21471338	      3.69620389	     -7.62754902	      3.24001430	    -15.71724080	    -12.86001221	     17.22821137	      1.39618009	    -16.16578388	      0.04833832	     -3.99763930
      2.21000000	     -1.36025711	      0.38016289	    129.49409329	     -0.42382450	      1.00084508	      0.49683129	     22.89634232	      2.38071327	    -30.48926295	    -15.37471335	      7.27433066	      3.21907074	     -8.18187009	      3.26726985	    -15.68506903	    -13.15372255	     17.44772380	      1.58848897	    -16.25406322	      0.19475849	     -4.23942221
      2.22000000	     -1.50628910	      0.52542358	    129.52942215	     -0.42871342	      0.99990553	      0.49132359	     22.60668649	      2.32656401	    -31.00838804	    -15.29544659	      7.31408761	      2.64694332	     -8.66754649	      3.24241776	    -15.59421653	    -13.55332167	     17.67864064	      1.79617819	    -16.32333741	      0.39171791	     -4.50660397
      2.23000000	     -1.61405730	      0.67243099	    129.62765609	     -0.43365952	      0.99894529	      0.48579843	     22.33863898	      2.26874987	    -31.35178100	    -15.37665786	      7.30903301	      2.00353492	     -9.06932604	      3.15678749	    -15.42681409	    -14.07008865	     17.90874651	      2.00621293	    -16.36204426	      0.64287966	     -4.80043359
      2.24000000	     -1.67221417	      0.83181755	    129.77547439	     -0.43867575	      0.99798772	      0.48023585	     22.09325146	      2.22633963	    -31.56646191	    -15.60984445	      7.27488757	      1.28770482	     -9.38920810	      2.99842490	    -15.18367067	    -14.70677610	     18.13592682	      2.21964365	    -16.36882623	      0.96523482	     -5.06322746
      2.25000000	     -1.71626230	      1.00791890	    129.92110329	     -0.44369075	      0.99709670	      0.47455081	     21.85643439	      2.20030278	    -31.58443283	    -15.99594224	      7.14883367	      0.31079103	     -9.67634914	      2.80002521	    -14.96032060	    -15.42183914	     18.32191764	      2.49740684	    -16.37293973	      1.31338708	     -5.33435720
      2.26000000	     -1.71416160	      1.20069412	    130.07158132	     -0.44873856	      0.99626725	      0.46876003	     21.64805779	      2.20798540	    -31.50854572	    -16.51285036	      6.98205163	     -0.75872130	     -9.89136626	      2.53741983	    -14.70404780	    -16.25224430	     18.47900621	      2.79614836	    -16.34798045	      1.71956064	     -5.53900293
      2.27000000	     -1.67570511	      1.41894894	    130.19516700	     -0.45378128	      0.99554585	      0.46281519	     21.45893736	      2.26304631	    -31.33101822	    -17.14439716	      6.76050223	     -1.95600430	    -10.05449655	      2.21872822	    -14.45316719	    -17.18582856	     18.57515037	      3.13932443	    -16.31029114	      2.17346307	     -5.68573486
      2.28000000	     -1.60943814	      1.65927476	    130.26625291	     -0.45878715	      0.99496004	      0.45667881	     21.28366682	      2.37132468	    -31.05674146	    -17.85856250	      6.48961581	     -3.25613185	    -10.16990934	      1.85863597	    -14.22137346	    -18.22317735	     18.58561038	      3.53936783	    -16.26217375	      2.65624782	     -5.75885006
      2.29000000	     -1.52450634	      1.91994537	    130.26844290	     -0.46373359	      0.99452837	      0.45033375	     21.11702216	      2.53045142	    -30.69190783	    -18.63939527	      6.19801015	     -4.61872958	    -10.23643332	      1.46663889	    -14.03398592	    -19.37530319	     18.48737573	      4.00814386	    -16.21207081	      3.15155843	     -5.74405105
      2.30000000	     -1.42329965	      2.19396927	    130.18698588	     -0.46860728	      0.99426149	      0.44377971	     20.95026521	      2.74454053	    -30.24366964	    -19.44387927	      5.89441689	     -5.97612224	    -10.24627859	      1.05428488	    -13.89173129	    -20.64922293	     18.25612781	      4.54361597	    -16.15776883	      3.65561225	     -5.64946035
      2.31000000	     -1.32511860	      2.47162658	    130.02257781	     -0.47336105	      0.99417502	      0.43700823	     20.77447851	      2.99327464	    -29.72869091	    -20.26185207	      5.62236574	     -7.29568882	    -10.20086504	      0.64287270	    -13.76755442	    -22.04557261	     17.83767115	      5.16651655	    -16.10961940	      4.12839921	     -5.46606432
      2.32000000	     -1.22819478	      2.74528444	    129.77595904	     -0.47799495	      0.99424868	      0.43004947	     20.57956777	      3.27533876	    -29.15858734	    -21.05197983	      5.39135655	     -8.49938420	    -10.08292528	      0.23416981	    -13.66577974	    -23.58007579	     17.24630226	      5.85366746	    -16.06107175	      4.57436539	     -5.21879098
      2.33000000	     -1.13067528	      3.00922962	    129.44706291	     -0.48245168	      0.99446036	      0.42293698	     20.36035137	      3.59648849	    -28.51997668	    -21.78402932	      5.18785727	     -9.51470844	     -9.86862254	     -0.17880350	    -13.60721419	    -25.27882657	     16.50362926	      6.55280404	    -16.01477209	      4.98659537	     -4.92905635
      2.34000000	     -1.06678688	      3.24500854	    129.08681062	     -0.48680813	      0.99482326	      0.41573707	     20.09964536	      3.88449058	    -27.93433708	    -22.46207585	      5.12931416	    -10.44672504	     -9.57399271	     -0.54701518	    -13.46562309	    -27.10331381	     15.49565377	      7.38013937	    -15.97215802	      5.33142813	     -4.61836120
      2.35000000	     -1.00752087	      3.45765984	    128.68280466	     -0.49097951	      0.99528099	      0.40847650	     19.80301603	      4.18266887	    -27.34797692	    -23.04900973	      5.12391717	    -11.17042711	     -9.16076258	     -0.91741923	    -13.32908616	    -29.09088157	     14.31671050	      8.19348571	    -15.92553848	      5.63284479	     -4.30345195
